# xmcd
#
# Track frame offsets: 
#        150
#        5116
#        20959
#        40696
#        58049
#        73271
#        75158
#        89790
#        108151
#        125030
#        141629
#        155285
#        156191
#        172777
#        190024
#        207734
#        225802
#
# Disc length: 3249 seconds
#
# Revision: 1
# Processed by: cddbd v1.5.2PL0 Copyright (c) Steve Scherf et al.
# Submitted via: ExactAudioCopy v0.99pb3
#
DISCID=e70caf11
DTITLE=Jennifer Pena - Dicen Que El Tempo
DYEAR=2006
DGENRE=Latin
TTITLE0=Intro
TTITLE1=Soy Asi
TTITLE2=Ladron
TTITLE3=Tuya
TTITLE4=Marzo 17
TTITLE5=Baby's 15 Seconds
TTITLE6=Pero Que Necesidad
TTITLE7=Cobarde Mi Verdad
TTITLE8=Tus Besos
TTITLE9=Cuando Tu Pasas
TTITLE10=Brisas Suaves
TTITLE11=Life Is
TTITLE12=Como Entender
TTITLE13=El Momento
TTITLE14=Tu Mejor Amiga
TTITLE15=Como Entender (Cumbia)
TTITLE16=Como Entender (Nortena)
EXTD=YEAR: 2006
EXTT0=
EXTT1=
EXTT2=
EXTT3=
EXTT4=
EXTT5=
EXTT6=
EXTT7=
EXTT8=
EXTT9=
EXTT10=
EXTT11=
EXTT12=
EXTT13=
EXTT14=
EXTT15=
EXTT16=
PLAYORDER=
